 <svg xmlns="http://www.w3.org/2000/svg" viewBox="0 0 537.24 381.86"><defs><style>.cls-1{fill:#66cbe4;}.cls-2{font-size:70px;font-family:MyriadPro-Bold, Myriad Pro;font-weight:700;letter-spacing:0.03em;}.cls-2,.cls-7{fill:#46c1ad;}.cls-3{letter-spacing:0.02em;}.cls-4{letter-spacing:0.02em;}.cls-5{letter-spacing:0em;}.cls-6{letter-spacing:0.02em;}</style></defs><g id="Layer_2" data-name="Layer 2"><g id="Layer_1-2" data-name="Layer 1"><path class="cls-1" d="M366.74,367.23c-28.42-12.78-36.18-45.83-54.41-43.68s-20.31,17.23-23.78,25c-4.77,10.73-5.49,19.39-18.86,22.66-17.1,4.19-40-1.49-59.63-6.05-13.26-3.08-68.57-13.38-108.69-15.35-35-1.73-89.14-.08-89.14-.08s49.27,1.76,107.31,8.57c23.56,2.76,77,12.35,88.92,15,27.51,6.06,38.34,9.07,51.79,8.5s18.32-2.77,26.28-8.33c10.78-7.53,13.86-37.33,26.22-39.56,12.91-2.31,29.73,31.22,67,39.89"/><text class="cls-2" transform="translate(0 317.29)">S<tspan class="cls-3" x="39.69" y="0">cri</tspan><tspan class="cls-4" x="121.24" y="0">b</tspan><tspan class="cls-5" x="164.71" y="0">e</tspan><tspan class="cls-6" x="201.95" y="0">.js</tspan></text><path class="cls-7" d="M374.59,367.63c.81,4.78,5.82,7.22,5.82,7.22L403.5,326.3s66-48,98.74-88c19.61-24,39.68-67.77,34-80.41,0,0-9.74,13.14-19.74,19.65a71,71,0,0,1-17,8.18S524,159.33,529.89,133.4c2.75-12.14,10.16-66.05-17.37-91.89a44.15,44.15,0,0,1,.5,21.33c-1.11,5-6.18,13.81-6.18,13.81S501.49,46,477,20.3C453.27-4.58,445.82.41,445.82.41s16.53,68.19-2.09,154.45c-19.92,92.28-45.7,150.78-49.17,161.75s-20.74,45.86-20.74,45.86Z"/></g></g></svg>